<svg id="svg" xmlns="http://www.w3.org/2000/svg" xmlns:xlink="http://www.w3.org/1999/xlink" width="400" height="400" viewBox="0, 0, 400,400"><g id="svgg"><path id="path0" d="M158.735 46.295 C 159.091 46.870,157.932 47.071,155.198 46.907 C 152.961 46.774,150.930 46.989,150.685 47.387 C 150.439 47.784,149.735 47.916,149.119 47.680 C 148.504 47.443,148.000 47.544,148.000 47.903 C 148.000 48.261,146.740 48.470,145.200 48.367 C 143.660 48.264,142.400 48.458,142.400 48.799 C 142.400 49.342,141.326 49.656,136.000 50.670 C 135.340 50.795,133.900 51.403,132.800 52.021 C 131.700 52.638,130.517 53.156,130.171 53.172 C 129.825 53.187,129.200 53.740,128.783 54.400 C 128.366 55.060,128.019 55.322,128.012 54.982 C 128.006 54.641,127.161 54.913,126.136 55.584 C 125.111 56.256,123.973 56.534,123.608 56.203 C 123.242 55.871,123.202 56.050,123.519 56.600 C 123.867 57.205,123.636 57.600,122.933 57.600 C 122.294 57.600,121.564 58.140,121.311 58.800 C 121.057 59.460,120.307 60.000,119.644 60.000 C 118.980 60.000,117.835 60.918,117.100 62.040 C 116.365 63.162,115.322 63.911,114.782 63.704 C 113.727 63.299,107.810 68.914,107.526 70.589 C 107.432 71.145,107.079 72.289,106.741 73.131 C 106.261 74.331,106.374 74.509,107.264 73.954 C 107.889 73.565,116.500 73.196,126.400 73.134 C 144.320 73.022,145.897 72.919,147.800 71.730 C 148.350 71.387,149.129 71.309,149.532 71.558 C 149.934 71.806,150.384 71.651,150.532 71.212 C 150.771 70.499,151.546 70.381,156.000 70.375 C 156.660 70.374,158.280 70.267,159.600 70.137 C 160.920 70.007,162.673 70.229,163.497 70.630 C 164.449 71.095,164.818 71.076,164.511 70.580 C 164.246 70.151,164.916 69.800,166.000 69.800 C 167.084 69.800,167.807 70.064,167.608 70.388 C 167.176 71.085,170.160 70.801,172.331 69.937 C 173.487 69.477,173.702 69.588,173.208 70.388 C 172.730 71.161,172.856 71.258,173.676 70.748 C 175.212 69.793,194.436 69.674,196.297 70.608 C 197.258 71.091,197.621 71.081,197.311 70.580 C 197.046 70.151,197.716 69.800,198.800 69.800 C 199.884 69.800,200.607 70.064,200.408 70.388 C 199.976 71.085,202.960 70.801,205.131 69.937 C 206.287 69.477,206.502 69.588,206.008 70.388 C 205.552 71.124,205.660 71.257,206.361 70.824 C 208.026 69.795,214.503 69.586,213.888 70.580 C 213.542 71.142,213.733 71.212,214.432 70.780 C 215.739 69.972,233.679 69.624,233.190 70.416 C 233.000 70.724,233.825 70.817,235.022 70.625 C 243.794 69.213,259.355 70.669,261.818 73.132 C 262.366 73.680,263.261 73.980,263.807 73.798 C 264.353 73.616,264.800 73.857,264.800 74.333 C 264.800 74.810,265.070 75.142,265.400 75.071 C 266.715 74.788,270.465 76.848,270.001 77.599 C 269.728 78.039,270.205 78.400,271.061 78.400 C 271.916 78.400,273.253 79.390,274.031 80.600 C 274.809 81.810,276.353 83.520,277.463 84.400 C 281.254 87.407,282.458 88.858,281.906 89.753 C 281.579 90.282,281.713 90.424,282.236 90.102 C 283.303 89.442,289.142 101.154,288.535 102.737 C 288.309 103.324,288.436 104.119,288.816 104.503 C 291.146 106.854,292.703 242.400,290.400 242.400 C 289.960 242.400,289.690 242.841,289.800 243.381 C 289.910 243.921,289.190 244.486,288.200 244.637 C 287.210 244.788,286.400 245.156,286.400 245.456 C 286.401 245.871,277.481 246.005,273.425 245.650 C 273.109 245.623,272.749 214.515,272.625 176.523 C 272.442 120.316,272.201 107.205,271.331 106.158 C 270.743 105.449,270.494 104.494,270.778 104.035 C 271.062 103.576,270.875 103.200,270.362 103.200 C 269.847 103.200,269.643 102.643,269.905 101.958 C 270.167 101.276,270.044 100.926,269.631 101.181 C 269.218 101.436,268.490 100.915,268.012 100.022 C 267.534 99.130,267.340 98.400,267.579 98.400 C 268.569 98.400,263.019 93.267,261.842 93.094 C 261.137 92.991,260.343 92.612,260.078 92.253 C 259.171 91.025,252.886 88.000,251.242 88.000 C 250.339 88.000,249.594 87.550,249.588 87.000 C 249.579 86.305,249.396 86.270,248.988 86.883 C 248.357 87.831,237.514 87.995,238.096 87.048 C 238.282 86.745,237.707 86.552,236.817 86.619 C 235.928 86.686,235.200 86.934,235.200 87.170 C 235.200 87.407,232.714 87.600,229.676 87.600 C 226.638 87.600,224.306 87.352,224.494 87.048 C 224.681 86.745,224.107 86.552,223.217 86.619 C 222.328 86.686,221.600 86.934,221.600 87.170 C 221.600 87.407,219.114 87.600,216.076 87.600 C 213.038 87.600,210.706 87.352,210.894 87.048 C 211.081 86.745,210.507 86.552,209.617 86.619 C 208.728 86.686,208.000 86.936,208.000 87.175 C 208.000 87.810,198.794 87.538,197.716 86.872 C 197.212 86.560,196.800 86.597,196.800 86.953 C 196.800 87.309,195.574 87.600,194.076 87.600 C 192.578 87.600,191.506 87.352,191.694 87.048 C 191.881 86.745,191.307 86.552,190.417 86.619 C 189.528 86.686,188.800 86.974,188.800 87.260 C 188.800 87.887,185.234 87.563,184.046 86.828 C 183.581 86.541,183.200 86.637,183.200 87.043 C 183.200 87.786,179.412 87.679,178.647 86.914 C 178.421 86.687,177.444 86.803,176.476 87.171 C 175.436 87.567,174.115 87.504,173.248 87.019 C 172.140 86.399,171.929 86.438,172.387 87.179 C 172.857 87.940,172.614 87.957,171.297 87.252 C 170.363 86.752,169.600 86.667,169.600 87.062 C 169.600 87.457,168.610 87.630,167.400 87.447 C 166.190 87.264,164.840 87.128,164.400 87.145 C 154.745 87.523,145.031 87.474,145.294 87.048 C 145.481 86.745,144.907 86.552,144.017 86.619 C 143.128 86.686,142.400 86.974,142.400 87.260 C 142.400 87.887,138.834 87.563,137.646 86.828 C 137.181 86.541,136.800 86.637,136.800 87.043 C 136.800 87.448,135.810 87.630,134.600 87.447 C 131.654 87.001,131.217 86.999,128.219 87.422 C 126.564 87.655,125.822 87.488,126.150 86.957 C 126.482 86.420,126.123 86.351,125.131 86.762 C 122.950 87.665,115.078 87.790,113.303 86.949 C 112.244 86.448,111.972 86.508,112.373 87.157 C 112.768 87.795,111.997 88.017,109.831 87.890 C 108.121 87.789,106.315 87.958,105.817 88.266 C 105.318 88.574,104.651 88.406,104.333 87.892 C 103.909 87.205,103.523 87.258,102.878 88.092 C 102.395 88.716,100.740 89.249,99.200 89.278 C 97.660 89.306,95.637 89.737,94.705 90.236 C 93.773 90.735,92.783 90.916,92.505 90.639 C 92.227 90.361,92.000 90.553,92.000 91.067 C 92.000 91.580,91.460 92.000,90.800 92.000 C 90.140 92.000,89.600 92.281,89.600 92.626 C 89.600 92.970,88.646 93.330,87.481 93.426 C 86.315 93.523,84.932 93.958,84.407 94.394 C 83.882 94.830,83.158 94.919,82.798 94.593 C 82.438 94.267,82.402 94.450,82.719 95.000 C 83.075 95.618,82.819 96.000,82.047 96.000 C 81.361 96.000,80.800 96.381,80.800 96.847 C 80.800 97.313,80.437 97.470,79.994 97.197 C 79.551 96.923,78.973 97.261,78.709 97.949 C 78.445 98.637,77.783 99.200,77.238 99.200 C 76.694 99.200,75.596 99.920,74.800 100.800 C 74.004 101.680,73.042 102.400,72.663 102.400 C 72.284 102.400,69.274 105.100,65.974 108.400 C 62.674 111.700,60.192 114.400,60.458 114.400 C 60.873 114.400,59.724 115.984,55.988 120.566 C 55.555 121.098,55.200 121.908,55.200 122.366 C 55.200 122.825,54.840 123.200,54.400 123.200 C 53.960 123.200,53.639 123.470,53.687 123.800 C 53.866 125.048,52.582 128.000,51.859 128.000 C 51.445 128.000,51.313 128.335,51.566 128.745 C 51.819 129.154,51.654 129.719,51.200 130.000 C 50.746 130.281,50.581 130.846,50.834 131.255 C 51.087 131.665,50.892 132.000,50.400 132.000 C 49.908 132.000,49.728 132.360,50.000 132.800 C 50.272 133.240,50.092 133.600,49.600 133.600 C 49.108 133.600,48.923 133.953,49.190 134.383 C 49.456 134.814,49.238 135.981,48.706 136.976 C 48.173 137.971,47.636 139.508,47.512 140.392 C 47.388 141.277,47.100 142.847,46.873 143.883 C 45.532 149.994,45.315 157.580,45.279 199.600 C 45.241 244.221,45.452 250.286,47.278 257.084 C 47.734 258.780,47.914 260.670,47.679 261.284 C 47.443 261.898,47.599 262.400,48.025 262.400 C 48.451 262.400,48.802 263.030,48.803 263.800 C 48.805 264.570,49.698 266.956,50.787 269.103 C 51.876 271.250,52.539 273.375,52.260 273.827 C 51.981 274.278,52.131 274.414,52.593 274.128 C 53.503 273.565,54.657 275.736,54.007 276.788 C 53.788 277.143,54.170 277.648,54.855 277.911 C 55.541 278.174,55.901 278.714,55.655 279.111 C 55.410 279.508,55.784 280.053,56.488 280.323 C 57.216 280.603,57.569 281.326,57.308 282.007 C 57.033 282.722,57.309 283.200,57.997 283.200 C 59.173 283.200,61.051 285.883,60.359 286.574 C 59.693 287.241,70.226 297.032,72.752 298.093 C 75.742 299.351,76.033 298.904,75.163 294.393 C 74.782 292.417,74.454 283.874,74.435 275.409 C 74.406 262.829,74.118 258.957,72.857 254.209 C 69.939 243.223,70.695 147.061,73.727 143.640 C 74.097 143.222,74.400 142.276,74.400 141.538 C 74.400 140.800,74.936 139.751,75.591 139.207 C 76.246 138.664,76.608 137.937,76.396 137.593 C 76.183 137.249,76.550 136.760,77.212 136.506 C 77.874 136.252,78.354 135.765,78.280 135.422 C 77.902 133.669,88.546 121.600,90.472 121.600 C 90.765 121.600,91.443 121.072,91.979 120.426 C 92.515 119.780,93.189 119.282,93.477 119.320 C 95.182 119.546,96.027 119.082,95.519 118.200 C 95.202 117.650,95.242 117.471,95.608 117.803 C 95.973 118.134,97.155 117.827,98.235 117.120 C 99.656 116.188,100.043 116.132,99.639 116.917 C 99.332 117.513,99.648 117.301,100.341 116.447 C 101.033 115.593,101.600 115.156,101.600 115.475 C 101.600 115.795,102.265 115.700,103.077 115.266 C 104.086 114.726,104.839 114.759,105.451 115.371 C 106.113 116.033,106.480 115.922,106.854 114.948 C 107.258 113.895,107.685 113.803,108.977 114.494 C 109.914 114.996,110.388 115.028,110.106 114.571 C 109.837 114.137,110.334 113.595,111.208 113.366 C 112.083 113.137,112.955 113.204,113.147 113.514 C 113.339 113.825,143.579 114.061,180.348 114.039 L 247.200 114.000 247.200 122.816 L 247.200 131.632 180.600 131.613 C 142.610 131.602,113.518 131.285,112.879 130.874 C 112.119 130.387,111.434 130.597,110.755 131.526 C 110.153 132.350,109.554 132.572,109.251 132.083 C 108.975 131.636,108.222 131.472,107.579 131.719 C 106.936 131.966,106.656 132.580,106.958 133.084 C 107.260 133.588,106.829 133.460,106.000 132.800 C 105.122 132.101,104.744 132.017,105.094 132.600 C 105.499 133.274,105.143 133.600,104.000 133.600 C 103.068 133.600,102.528 133.960,102.800 134.400 C 103.072 134.840,102.830 135.200,102.262 135.200 C 101.118 135.200,91.127 145.328,91.380 146.231 C 91.468 146.544,91.101 147.592,90.564 148.559 C 88.959 151.450,89.752 300.800,91.371 300.800 C 91.717 300.800,92.000 301.538,92.000 302.440 C 92.000 303.342,92.555 305.152,93.233 306.463 C 93.911 307.774,94.235 309.220,93.953 309.677 C 93.671 310.133,94.074 310.970,94.850 311.538 C 95.792 312.226,96.070 313.064,95.688 314.060 C 95.373 314.880,95.372 315.294,95.686 314.981 C 96.421 314.246,98.636 317.371,98.051 318.318 C 97.808 318.711,98.147 319.239,98.805 319.491 C 99.462 319.743,100.000 320.463,100.000 321.089 C 100.000 321.716,100.577 322.450,101.283 322.721 C 102.039 323.011,102.371 323.721,102.092 324.448 C 101.821 325.155,101.957 325.474,102.409 325.194 C 102.844 324.926,103.200 325.110,103.200 325.604 C 103.200 326.099,104.281 327.413,105.602 328.525 C 106.923 329.636,107.797 330.882,107.543 331.293 C 107.289 331.704,107.408 331.941,107.807 331.820 C 108.719 331.544,115.200 337.311,115.200 338.398 C 115.200 338.839,115.907 339.200,116.772 339.200 C 117.636 339.200,118.734 339.930,119.212 340.822 C 119.690 341.715,120.393 342.251,120.776 342.015 C 121.158 341.779,121.997 342.111,122.640 342.755 C 123.283 343.398,124.032 343.701,124.305 343.429 C 124.577 343.156,124.800 343.549,124.800 344.302 C 124.800 345.054,125.250 345.587,125.800 345.485 C 126.350 345.384,129.230 346.425,132.201 347.800 C 135.171 349.175,138.231 350.289,139.001 350.275 C 139.770 350.261,141.300 350.497,142.400 350.800 C 143.500 351.103,145.023 351.339,145.784 351.326 C 146.546 351.313,147.367 351.623,147.610 352.016 C 147.853 352.409,148.562 352.534,149.187 352.294 C 149.812 352.054,150.791 352.159,151.362 352.527 C 152.179 353.053,162.807 353.629,171.200 353.602 C 171.860 353.600,179.240 353.602,187.600 353.607 C 195.960 353.613,203.160 353.612,203.600 353.606 C 204.040 353.600,214.390 353.533,226.600 353.457 C 238.810 353.381,248.800 353.047,248.800 352.713 C 248.800 352.379,249.700 352.269,250.800 352.469 C 251.900 352.668,252.800 352.488,252.800 352.069 C 252.800 351.649,253.700 351.469,254.800 351.669 C 255.978 351.882,256.800 351.656,256.800 351.118 C 256.800 350.452,257.087 350.442,257.855 351.079 C 258.630 351.723,259.343 351.650,260.549 350.805 C 261.452 350.174,262.417 349.884,262.695 350.162 C 262.973 350.439,263.200 350.203,263.200 349.635 C 263.200 348.820,263.483 348.834,264.554 349.702 C 265.318 350.322,265.661 350.390,265.342 349.858 C 264.702 348.790,267.512 347.604,268.798 348.399 C 269.246 348.675,269.827 348.339,270.091 347.651 C 270.355 346.963,271.073 346.400,271.686 346.400 C 272.299 346.400,272.800 346.061,272.800 345.646 C 272.800 345.231,273.530 345.032,274.421 345.204 C 275.313 345.376,275.832 345.175,275.574 344.758 C 275.316 344.341,275.637 344.000,276.286 344.000 C 276.935 344.000,277.592 343.624,277.745 343.164 C 277.898 342.705,278.789 342.271,279.724 342.201 C 280.865 342.115,281.276 341.686,280.973 340.897 C 280.660 340.082,280.901 339.868,281.758 340.197 C 282.550 340.500,283.622 339.823,284.738 338.313 C 285.696 337.016,286.762 336.129,287.106 336.342 C 287.808 336.776,294.283 330.141,295.767 327.468 C 296.943 325.349,295.499 323.615,293.573 324.834 C 292.928 325.242,285.099 325.581,276.175 325.588 C 262.378 325.598,259.880 325.783,259.481 326.820 C 259.096 327.825,258.790 327.860,257.753 327.020 C 256.995 326.407,256.712 326.365,257.042 326.916 C 257.810 328.199,255.613 328.877,254.380 327.737 C 253.596 327.013,253.498 327.034,253.947 327.827 C 254.374 328.583,253.978 328.755,252.448 328.477 C 251.277 328.265,250.569 328.426,250.828 328.845 C 251.388 329.751,256.583 329.636,201.781 329.927 C 154.800 330.177,151.618 330.085,152.563 328.509 C 152.888 327.966,152.604 328.008,151.858 328.611 C 150.469 329.736,147.924 329.578,146.278 328.265 C 145.685 327.792,144.595 327.504,143.855 327.624 C 143.116 327.744,142.308 327.313,142.059 326.666 C 141.767 325.905,141.042 325.669,140.004 325.999 C 139.083 326.291,138.400 326.144,138.400 325.654 C 138.400 325.184,137.860 324.800,137.200 324.800 C 136.540 324.800,136.000 324.480,136.000 324.089 C 136.000 323.698,135.379 323.428,134.619 323.489 C 133.860 323.550,133.222 323.060,133.201 322.400 C 133.181 321.740,132.590 321.295,131.889 321.411 C 131.187 321.526,130.161 321.076,129.609 320.411 C 129.056 319.745,128.786 319.200,129.008 319.200 C 129.739 319.200,123.199 312.971,121.974 312.501 C 120.789 312.046,118.803 308.215,119.091 306.941 C 119.173 306.578,118.921 306.478,118.531 306.719 C 117.734 307.211,114.012 298.700,113.143 294.400 C 110.739 282.500,112.954 150.119,115.489 154.220 C 115.740 154.626,118.927 154.897,122.572 154.824 C 126.218 154.750,129.650 154.843,130.200 155.030 C 130.989 155.299,131.203 169.078,131.212 220.286 C 131.223 276.168,131.397 285.868,132.460 290.000 C 133.139 292.640,133.787 295.432,133.899 296.203 C 134.012 296.975,134.800 298.116,135.652 298.739 C 136.503 299.362,137.200 300.179,137.200 300.555 C 137.200 301.876,140.426 305.325,141.368 305.011 C 141.892 304.836,142.762 305.401,143.303 306.267 C 143.843 307.132,144.715 307.676,145.239 307.474 C 145.764 307.273,146.737 307.652,147.402 308.316 C 148.066 308.980,148.832 309.301,149.105 309.029 C 149.377 308.756,149.600 308.975,149.600 309.514 C 149.600 310.053,149.929 310.291,150.332 310.042 C 150.734 309.794,151.246 310.042,151.469 310.595 C 151.691 311.148,151.902 311.219,151.937 310.754 C 151.972 310.289,153.170 310.001,154.600 310.115 C 159.624 310.515,294.828 310.373,297.200 309.965 C 298.520 309.739,300.050 309.504,300.600 309.443 C 301.150 309.383,301.600 308.989,301.600 308.569 C 301.600 308.148,302.105 308.223,302.722 308.735 C 303.510 309.389,303.931 309.408,304.134 308.798 C 304.293 308.320,305.228 307.868,306.212 307.794 C 307.195 307.720,308.000 307.332,308.000 306.932 C 308.000 306.532,308.516 306.632,309.146 307.156 C 310.059 307.913,310.643 307.757,312.008 306.392 C 312.952 305.448,314.255 304.880,314.903 305.129 C 315.567 305.383,315.869 305.235,315.594 304.791 C 315.326 304.356,315.667 304.000,316.353 304.000 C 317.039 304.000,317.600 303.619,317.600 303.153 C 317.600 302.687,317.935 302.513,318.345 302.766 C 318.754 303.019,319.319 302.854,319.600 302.400 C 319.881 301.946,320.446 301.781,320.855 302.034 C 321.265 302.287,321.600 302.104,321.600 301.627 C 321.600 301.151,322.500 300.418,323.600 300.000 C 324.700 299.582,325.600 298.871,325.600 298.420 C 325.600 297.969,326.069 297.600,326.643 297.600 C 327.217 297.600,328.902 296.345,330.388 294.812 C 331.875 293.279,333.269 292.202,333.486 292.419 C 334.000 292.933,337.600 289.554,337.600 288.558 C 337.600 288.138,338.878 286.310,340.440 284.497 C 344.468 279.822,344.800 279.363,344.800 278.474 C 344.800 278.037,345.430 277.313,346.200 276.864 C 346.970 276.416,347.340 276.038,347.023 276.024 C 346.705 276.011,347.335 274.326,348.423 272.281 C 349.510 270.235,350.400 268.075,350.400 267.481 C 350.400 266.886,350.749 266.400,351.175 266.400 C 351.601 266.400,351.743 265.860,351.489 265.200 C 351.236 264.540,351.449 264.000,351.962 264.000 C 352.475 264.000,352.687 263.665,352.434 263.255 C 352.181 262.846,352.346 262.281,352.800 262.000 C 353.254 261.719,353.445 261.196,353.223 260.838 C 353.002 260.479,353.339 258.463,353.973 256.356 C 354.607 254.250,354.941 252.228,354.716 251.863 C 354.490 251.499,354.597 251.200,354.953 251.200 C 355.581 251.200,355.493 151.911,354.861 147.431 C 354.171 142.536,352.786 136.670,351.955 135.116 C 351.472 134.213,351.304 132.884,351.581 132.162 C 351.858 131.440,351.820 131.114,351.496 131.437 C 350.833 132.101,347.090 124.826,347.638 123.938 C 347.832 123.625,347.430 123.152,346.745 122.889 C 346.059 122.626,345.711 122.067,345.972 121.646 C 346.232 121.225,345.728 120.497,344.852 120.028 C 343.912 119.525,343.446 118.689,343.715 117.988 C 343.994 117.263,343.704 116.800,342.971 116.800 C 341.869 116.800,340.408 114.713,340.647 113.479 C 340.799 112.690,331.338 103.671,329.770 103.110 C 327.695 102.368,327.544 104.088,328.162 121.427 C 328.803 139.406,328.866 140.045,330.125 141.382 C 332.480 143.883,332.865 153.377,332.565 201.600 C 332.266 249.714,332.140 252.798,330.302 257.266 C 329.774 258.550,329.400 259.870,329.471 260.200 C 329.542 260.530,329.275 260.800,328.878 260.800 C 328.481 260.800,327.767 261.790,327.290 263.000 C 326.076 266.080,324.694 268.092,322.600 269.826 C 321.610 270.646,320.800 271.774,320.800 272.334 C 320.800 273.583,318.048 276.181,317.406 275.539 C 317.150 275.283,316.121 276.183,315.120 277.537 C 314.119 278.892,312.972 280.000,312.573 280.000 C 312.174 280.000,310.736 280.791,309.379 281.757 C 307.895 282.814,307.152 283.053,307.515 282.357 C 307.847 281.721,307.569 281.875,306.898 282.700 C 306.177 283.586,305.153 284.000,304.397 283.710 C 303.693 283.439,303.321 283.548,303.570 283.952 C 304.077 284.772,301.444 285.856,298.400 286.081 C 297.300 286.162,296.400 286.297,296.400 286.381 C 296.400 286.619,292.535 287.255,291.200 287.236 C 290.540 287.227,260.120 287.125,223.600 287.010 C 185.772 286.890,156.717 286.489,156.076 286.076 C 155.255 285.547,155.127 285.635,155.600 286.400 C 156.028 287.093,155.935 287.254,155.324 286.876 C 153.423 285.702,154.104 267.785,156.011 268.806 C 157.064 269.369,158.095 269.402,158.990 268.902 C 159.874 268.407,160.896 268.423,161.876 268.948 C 162.827 269.457,163.212 269.466,162.907 268.974 C 162.603 268.481,163.984 268.323,166.611 268.550 C 168.915 268.749,171.790 268.881,173.000 268.843 C 174.210 268.805,175.830 268.752,176.600 268.725 C 177.370 268.698,178.980 268.833,180.178 269.025 C 181.375 269.218,182.174 269.081,181.952 268.722 C 181.730 268.363,182.730 268.257,184.174 268.486 C 187.882 269.073,188.217 269.066,189.931 268.359 C 190.917 267.953,191.281 268.021,190.954 268.552 C 190.395 269.456,193.029 269.333,195.531 268.337 C 196.687 267.877,196.902 267.988,196.408 268.788 C 195.956 269.519,196.060 269.657,196.745 269.234 C 197.979 268.471,204.887 268.013,204.448 268.722 C 204.272 269.007,206.349 269.137,209.064 269.011 C 211.779 268.885,214.720 268.813,215.600 268.852 C 216.480 268.891,219.360 268.895,222.000 268.861 C 229.328 268.766,229.716 268.764,234.000 268.810 C 236.200 268.834,238.720 268.854,239.600 268.854 C 240.480 268.854,242.280 268.868,243.600 268.885 C 244.920 268.902,247.182 268.725,248.626 268.492 C 250.070 268.260,251.089 268.333,250.890 268.655 C 250.691 268.977,252.749 269.130,255.464 268.994 C 260.394 268.749,262.819 268.737,269.600 268.924 C 271.580 268.979,273.889 268.732,274.731 268.376 C 275.722 267.957,276.083 268.019,275.754 268.552 C 275.449 269.045,275.957 269.272,277.022 269.117 C 278.000 268.976,279.901 268.692,281.246 268.487 C 282.591 268.283,284.170 268.410,284.754 268.772 C 285.359 269.145,286.923 268.966,288.388 268.354 C 290.326 267.544,291.186 267.506,291.880 268.200 C 292.573 268.893,292.800 268.884,292.800 268.160 C 292.800 267.632,293.700 267.200,294.800 267.200 C 295.900 267.200,296.800 266.780,296.800 266.267 C 296.800 265.753,297.029 265.563,297.310 265.843 C 297.590 266.123,298.816 265.643,300.033 264.776 C 301.251 263.909,302.574 263.200,302.974 263.200 C 303.849 263.200,308.000 258.974,308.000 258.082 C 308.000 257.736,308.711 256.549,309.579 255.445 C 310.447 254.341,311.387 252.214,311.668 250.719 C 311.949 249.223,312.493 248.000,312.878 248.000 C 313.692 248.000,313.402 108.209,312.580 104.040 C 311.974 100.967,309.408 92.794,307.909 89.162 C 307.373 87.863,306.889 86.620,306.834 86.400 C 306.778 86.180,306.132 84.876,305.398 83.501 C 304.664 82.127,304.319 80.719,304.632 80.373 C 304.944 80.027,304.776 79.986,304.258 80.283 C 303.696 80.605,303.083 80.092,302.741 79.015 C 302.425 78.020,301.590 76.784,300.884 76.268 C 300.178 75.751,299.555 74.940,299.500 74.464 C 299.445 73.989,299.355 73.219,299.300 72.753 C 299.245 72.287,298.888 72.098,298.507 72.334 C 297.600 72.895,295.139 70.150,294.863 68.270 C 294.745 67.462,294.322 66.799,293.924 66.799 C 292.648 66.797,288.000 63.126,288.000 62.121 C 288.000 61.587,286.887 60.731,285.527 60.217 C 284.144 59.695,283.283 58.913,283.574 58.442 C 283.886 57.936,283.276 57.600,282.047 57.600 C 280.921 57.600,280.000 57.240,280.000 56.800 C 280.000 56.360,279.460 56.000,278.800 56.000 C 278.140 56.000,277.600 55.640,277.600 55.200 C 277.600 54.760,277.330 54.457,277.000 54.527 C 276.068 54.724,273.347 53.483,271.800 52.154 C 271.030 51.493,270.400 51.193,270.400 51.487 C 270.400 51.781,269.140 51.495,267.600 50.852 C 266.060 50.208,264.800 49.834,264.800 50.021 C 264.800 50.208,263.810 49.960,262.600 49.471 C 257.601 47.449,243.604 45.857,235.600 46.399 C 234.720 46.459,233.020 46.354,231.822 46.166 C 230.625 45.978,229.788 46.057,229.964 46.341 C 230.139 46.625,228.715 46.857,226.800 46.857 C 224.885 46.857,223.514 46.538,223.755 46.149 C 223.996 45.759,223.500 45.811,222.653 46.264 C 221.807 46.718,220.700 46.832,220.193 46.520 C 219.687 46.207,217.367 46.069,215.037 46.213 C 211.316 46.444,209.533 46.477,205.400 46.391 C 204.850 46.380,202.060 46.494,199.200 46.645 C 196.340 46.797,193.327 46.587,192.503 46.180 C 191.374 45.622,191.161 45.689,191.635 46.456 C 192.100 47.209,191.865 47.308,190.731 46.841 C 189.889 46.493,188.660 46.257,188.000 46.315 C 187.340 46.373,186.080 46.394,185.200 46.361 C 184.320 46.328,183.060 46.331,182.400 46.369 C 178.642 46.582,171.053 46.476,167.487 46.161 C 165.225 45.961,162.905 46.088,162.330 46.443 C 161.756 46.798,160.593 46.718,159.747 46.264 C 158.665 45.686,158.364 45.695,158.735 46.295 M114.400 64.238 C 114.400 64.368,112.870 65.898,111.000 67.638 L 107.600 70.800 110.762 67.400 C 113.703 64.238,114.400 63.632,114.400 64.238 M247.200 200.200 L 247.200 245.600 244.600 245.636 C 243.170 245.656,222.301 245.746,198.224 245.836 L 154.449 246.000 154.413 200.400 L 154.377 154.800 200.789 154.800 L 247.200 154.800 247.200 200.200 " stroke="none" fill="#000000" fill-rule="evenodd"></path></g></svg>